v -0.5 0.5 -0.5
v -0.5 0.5 0.5
v 0.5 0.5 0.5
v 0.5 0.5 -0.5
v -0.5 -0.5 -0.5
v -0.5 -0.5 0.5
v 0.5 -0.5 0.5
v 0.5 -0.5 -0.5

# Top left
vt 0 1
# Bottom left
vt 0 0
# Bottom right
vt 1 0
# Top right
vt 1 1

vn -1 0 0
vn 1 0 0
vn 0 -1 0
vn 0 1 0
vn 0 0 -1
vn 0 0 1

# Faces (vertex/texcoord/normal)
# -X face
f 6/4/1 2/4/1 1/4/1
f 6/4/1 1/4/1 5/4/1
# +X face
f 8/4/2 4/4/2 3/4/2
f 8/4/2 3/4/2 7/4/2

# -Z face
f 5/4/5 1/4/5 4/4/5
f 5/4/5 4/4/5 8/4/5
# +Z face
f 7/4/6 3/4/6 2/4/6
f 7/4/6 2/4/6 6/4/6

# +Y face
f 3/4/4 4/4/4 1/4/4
f 3/4/4 1/4/4 2/4/4
# -Y face
f 8/1/3 7/2/3 6/4/3
f 8/4/3 6/4/3 5/4/3
